<svg width="12" height="12" viewBox="0 0 12 12" fill="none" xmlns="http://www.w3.org/2000/svg">
<g clip-path="url(#clip0_4502_15656)">
<path d="M7.34445 4.59443L6.61112 4.9611V4.16665C6.61112 3.79999 6.36667 3.55554 6.00001 3.55554C5.63334 3.55554 5.38889 3.79999 5.38889 4.16665V4.77776L4.90001 4.4111C4.59445 4.22776 4.22778 4.28888 4.04445 4.53332C3.80001 4.83888 3.86112 5.20554 4.16667 5.38888L4.8389 5.87776L4.04445 6.30554C3.73889 6.48888 3.61667 6.85554 3.80001 7.1611C3.92223 7.34443 4.10556 7.46665 4.35001 7.46665C4.47223 7.46665 4.53334 7.46665 4.65556 7.40554L5.38889 7.03888V7.83332C5.38889 8.19999 5.63334 8.44443 6.00001 8.44443C6.36667 8.44443 6.61112 8.19999 6.61112 7.83332V7.22221L7.10001 7.58888C7.22223 7.64999 7.34445 7.7111 7.46667 7.7111C7.65001 7.7111 7.83334 7.64999 7.95556 7.46665C8.13889 7.22221 8.07778 6.79443 7.83334 6.6111L7.16112 6.12221L7.95556 5.69443C8.26112 5.5111 8.38334 5.14443 8.20001 4.83888C8.01667 4.53332 7.58889 4.4111 7.34445 4.59443Z" fill="#3D3B48"/>
<path d="M8.44444 0.5H3.55556C1.84444 0.5 0.5 1.84444 0.5 3.55556V8.44444C0.5 10.1556 1.84444 11.5 3.55556 11.5H8.44444C10.1556 11.5 11.5 10.1556 11.5 8.44444V3.55556C11.5 1.84444 10.1556 0.5 8.44444 0.5ZM10.2778 8.44444C10.2778 9.48333 9.48333 10.2778 8.44444 10.2778H3.55556C2.51667 10.2778 1.72222 9.48333 1.72222 8.44444V3.55556C1.72222 2.51667 2.51667 1.72222 3.55556 1.72222H8.44444C9.48333 1.72222 10.2778 2.51667 10.2778 3.55556V8.44444Z" fill="#3D3B48"/>
</g>
<defs>
<clipPath id="clip0_4502_15656">
<rect width="12" height="12" fill="white"/>
</clipPath>
</defs>
</svg>
