<svg width="12" height="12" viewBox="0 0 12 12" fill="none" xmlns="http://www.w3.org/2000/svg">
<path d="M9.4895 5.17881C9.52628 4.96816 9.54656 4.75147 9.54656 4.52995C9.54656 2.51619 7.95557 0.877716 6 0.877716C4.04435 0.877716 2.45327 2.51619 2.45327 4.52995C2.45327 4.75147 2.47364 4.96799 2.51051 5.17881C2.20256 5.37547 1.99779 5.71933 1.99779 6.11205V9.68744C1.99779 10.299 2.49359 10.7947 3.10498 10.7947H8.89494C9.50616 10.7947 10.0019 10.299 10.0019 9.68744H10.0022V6.11205C10.0022 5.71941 9.79761 5.37547 9.4895 5.17881ZM6.48855 8.30071V9.07769C6.48855 9.34773 6.26979 9.56649 5.99983 9.56649C5.72987 9.56649 5.51111 9.34773 5.51111 9.07769V8.30036C5.19764 8.12762 4.98501 7.79429 4.98501 7.41098C4.98501 6.85052 5.43937 6.39608 6 6.39608C6.56064 6.39608 7.01508 6.85052 7.01508 7.41098C7.01508 7.79446 6.80228 8.12805 6.48855 8.30071ZM8.19713 5.00468H3.80279C3.77267 4.85144 3.75661 4.69251 3.75661 4.52995C3.75661 3.23472 4.76297 2.18105 6 2.18105C7.23695 2.18105 8.24323 3.23464 8.24323 4.52995C8.24323 4.69251 8.22734 4.85144 8.19713 5.00468Z" fill="#3D3B48"/>
</svg>
