<svg width="13" height="13" viewBox="0 0 13 13" fill="none" xmlns="http://www.w3.org/2000/svg">
<path d="M6.09407 5.48438C6.25572 5.48438 6.41075 5.54858 6.52505 5.66286C6.63935 5.77714 6.70356 5.93213 6.70356 6.09375V10.1059L7.49164 9.31856C7.60609 9.2043 7.76124 9.14017 7.92298 9.14029C8.08472 9.1404 8.23979 9.20475 8.35407 9.31917C8.46836 9.4336 8.5325 9.58873 8.53238 9.75043C8.53227 9.91214 8.46791 10.0672 8.35346 10.1814L6.63225 11.8993C6.47805 12.0528 6.32751 12.1875 6.09407 12.1875C5.88928 12.1875 5.7491 12.0845 5.61379 11.9559L3.83468 10.1814C3.72024 10.0672 3.65588 9.91214 3.65576 9.75043C3.65565 9.58873 3.71979 9.4336 3.83407 9.31917C3.94836 9.20475 4.10343 9.1404 4.26516 9.14029C4.4269 9.14017 4.58206 9.2043 4.6965 9.31856L5.48458 10.1059V6.09375C5.48458 5.93213 5.54879 5.77714 5.66309 5.66286C5.7774 5.54858 5.93242 5.48438 6.09407 5.48438ZM5.78933 1.38298e-08C7.48615 1.38298e-08 8.93431 1.06641 9.4987 2.56669C10.2506 2.77337 10.9167 3.21481 11.4 3.82663C11.8833 4.43844 12.1584 5.18863 12.1853 5.96778C12.2122 6.74693 11.9894 7.51429 11.5494 8.15795C11.1094 8.8016 10.4753 9.28788 9.73945 9.54586C9.69393 9.13437 9.50947 8.75069 9.2165 8.45813C8.905 8.14528 8.49043 7.95622 8.04993 7.92614L7.92255 7.92188V6.09375C7.92301 5.61789 7.73786 5.1606 7.40645 4.81905C7.07504 4.4775 6.62348 4.27861 6.14773 4.26465C5.67198 4.25069 5.20953 4.42274 4.85865 4.74427C4.50776 5.06579 4.2961 5.51143 4.26864 5.9865L4.26559 6.09375V7.92188C4.0252 7.92151 3.7871 7.96871 3.56503 8.06074C3.34295 8.15278 3.14128 8.28783 2.97164 8.45813C2.64377 8.7857 2.45306 9.22587 2.43833 9.68906C1.80381 9.55943 1.22705 9.23113 0.791678 8.75177C0.356301 8.2724 0.0849226 7.66686 0.0168772 7.02293C-0.0511682 6.379 0.0876555 5.73014 0.413226 5.17039C0.738797 4.61064 1.2342 4.16909 1.82762 3.90975C1.84109 2.86814 2.26442 1.87376 3.00592 1.14198C3.74743 0.410191 4.74743 -8.69745e-05 5.78933 1.38298e-08Z" fill="#2A2932"/>
</svg>
