<svg width="10" height="6" viewBox="0 0 10 6" fill="none" xmlns="http://www.w3.org/2000/svg">
<path d="M4.25833 4.94305C4.37899 5.06371 4.52108 5.12404 4.68461 5.12404C4.84814 5.12404 4.98995 5.06371 5.11004 4.94305L8.94276 1.11034C9.06342 0.98968 9.12374 0.847586 9.12374 0.684057C9.12374 0.520528 9.06342 0.378718 8.94276 0.258626C8.8221 0.137967 8.68 0.0776367 8.51647 0.0776367C8.35294 0.0776367 8.21113 0.137967 8.09104 0.258626L4.68419 3.66548L1.27733 0.258626C1.15667 0.137967 1.01458 0.0776375 0.851049 0.0776375C0.68752 0.0776375 0.545709 0.137967 0.425617 0.258626C0.304958 0.379286 0.244629 0.52138 0.244629 0.684909C0.244629 0.848438 0.304958 0.990249 0.425618 1.11034L4.25833 4.94305Z" fill="#2A2932"/>
</svg>
