<svg width="11" height="11" viewBox="0 0 11 11" fill="none" xmlns="http://www.w3.org/2000/svg">
<path d="M5.5 0C2.46253 0 0 2.46253 0 5.5C0 8.53747 2.46253 11 5.5 11C8.53747 11 11 8.53747 11 5.5C11 2.46253 8.53747 0 5.5 0ZM6.23333 8.06667C6.23333 8.47183 5.90517 8.8 5.5 8.8C5.09483 8.8 4.76667 8.47183 4.76667 8.06667V5.13333C4.76667 4.72817 5.09483 4.4 5.5 4.4C5.90517 4.4 6.23333 4.72817 6.23333 5.13333V8.06667ZM5.5 3.66667C5.09483 3.66667 4.76667 3.3385 4.76667 2.93333C4.76667 2.52817 5.09483 2.2 5.5 2.2C5.90517 2.2 6.23333 2.52817 6.23333 2.93333C6.23333 3.3385 5.90517 3.66667 5.5 3.66667Z" fill="#2A2932"/>
</svg>
