<svg width="10" height="10" viewBox="0 0 10 10" fill="none" xmlns="http://www.w3.org/2000/svg">
<path d="M3.95421 9.67742V9.05307C3.95421 8.88658 3.80853 8.7409 3.64204 8.7409H1.56087C1.39438 8.7409 1.2487 8.59521 1.2487 8.42872V1.56087C1.2487 1.39438 1.39438 1.2487 1.56087 1.2487H3.64204C3.80853 1.2487 3.95421 1.10302 3.95421 0.936525V0.312175C3.95421 0.145682 3.80853 0 3.64204 0H0.832466C0.37461 0 0 0.37461 0 0.832466V9.15713C0 9.61498 0.37461 9.98959 0.832466 9.98959H3.64204C3.80853 9.98959 3.95421 9.84391 3.95421 9.67742ZM9.90635 5.20291C10.0312 5.07804 10.0312 4.89074 9.90635 4.76587L7.09677 1.9563C6.9719 1.83143 6.7846 1.83143 6.65973 1.9563L6.22268 2.39334C6.09781 2.51821 6.09781 2.70552 6.22268 2.83039L7.38814 3.99584C7.51301 4.12071 7.42976 4.34964 7.24246 4.34964H2.80957C2.64308 4.34964 2.4974 4.47451 2.4974 4.641V5.26535C2.4974 5.43184 2.64308 5.59833 2.80957 5.59833H7.22164C7.40895 5.59833 7.4922 5.82726 7.36733 5.95213L6.20187 7.11759C6.077 7.24246 6.077 7.42976 6.20187 7.55463L6.63892 7.99167C6.76379 8.11654 6.95109 8.11654 7.07596 7.99167L9.90635 5.20291Z" fill="#2A2932"/>
</svg>
