<svg width="28" height="5" viewBox="0 0 28 5" fill="none" xmlns="http://www.w3.org/2000/svg">
<path fill-rule="evenodd" clip-rule="evenodd" d="M0 2.50019C0 1.38499 0.854102 0.480957 1.9077 0.480957C2.9613 0.480957 3.8154 1.38499 3.8154 2.50019C3.8154 3.61538 2.9613 4.51942 1.9077 4.51942C0.854102 4.51942 0 3.61538 0 2.50019Z" fill="#2D2D2D"/>
<path fill-rule="evenodd" clip-rule="evenodd" d="M11.8154 2.50019C11.8154 1.38499 12.6695 0.480957 13.7231 0.480957C14.7767 0.480957 15.6308 1.38499 15.6308 2.50019C15.6308 3.61538 14.7767 4.51942 13.7231 4.51942C12.6695 4.51942 11.8154 3.61538 11.8154 2.50019Z" fill="#2D2D2D"/>
<path fill-rule="evenodd" clip-rule="evenodd" d="M23.6309 2.50019C23.6309 1.38499 24.485 0.480957 25.5386 0.480957C26.5922 0.480957 27.4463 1.38499 27.4463 2.50019C27.4463 3.61538 26.5922 4.51942 25.5386 4.51942C24.485 4.51942 23.6309 3.61538 23.6309 2.50019Z" fill="#2D2D2D"/>
</svg>
