<svg width="11" height="12" viewBox="0 0 11 12" fill="none" xmlns="http://www.w3.org/2000/svg">
<path d="M10.5054 7.06647L9.91655 6.72297C9.2786 6.33038 9.2786 5.398 9.91655 5.00542L10.5054 4.66191C10.9961 4.36747 11.1434 3.7786 10.8489 3.33695L10.3582 2.50271C10.0638 2.01198 9.47489 1.86476 9.03324 2.1592L8.44436 2.50271C7.80642 2.89529 6.97218 2.40456 6.97218 1.66847V0.981455C6.97218 0.441655 6.53053 0 5.99073 0H5.00927C4.46947 0 4.02782 0.441655 4.02782 0.981455V1.6194C4.02782 2.35549 3.19358 2.84622 2.55564 2.45364L1.96676 2.1592C1.47604 1.86476 0.887163 2.06105 0.641799 2.50271L0.151072 3.33695C-0.0942921 3.82767 0.0529261 4.41655 0.494581 4.71098L1.08345 5.05449C1.7214 5.398 1.7214 6.37946 1.08345 6.72297L0.494581 7.06647C0.00385335 7.36091 -0.143365 7.94978 0.151072 8.39144L0.641799 9.22567C0.936235 9.7164 1.52511 9.86362 1.96676 9.56918L2.55564 9.27475C3.19358 8.88217 4.02782 9.37289 4.02782 10.109V10.796C4.02782 11.3358 4.46947 11.7775 5.00927 11.7775H5.99073C6.53053 11.7775 6.97218 11.3358 6.97218 10.796V10.1581C6.97218 9.42197 7.80642 8.93124 8.44436 9.32382L9.03324 9.66733C9.52396 9.96177 10.1128 9.76548 10.3582 9.32382L10.8489 8.48958C11.0943 7.94978 10.9471 7.36091 10.5054 7.06647ZM5.5 7.85164C4.4204 7.85164 3.53709 6.96833 3.53709 5.88873C3.53709 4.80913 4.4204 3.92582 5.5 3.92582C6.5796 3.92582 7.46291 4.80913 7.46291 5.88873C7.46291 6.96833 6.5796 7.85164 5.5 7.85164Z" fill="#2A2932"/>
</svg>
