<svg width="10" height="6" viewBox="0 0 10 6" fill="none" xmlns="http://www.w3.org/2000/svg">
<path d="M4.57425 0.184407C4.69491 0.0637475 4.837 0.00341795 5.00053 0.00341797C5.16406 0.00341799 5.30587 0.063748 5.42596 0.184407L9.25867 4.01712C9.37933 4.13778 9.43966 4.27987 9.43966 4.4434C9.43966 4.60693 9.37933 4.74874 9.25867 4.86883C9.13801 4.98949 8.99592 5.04982 8.83239 5.04982C8.66886 5.04982 8.52705 4.98949 8.40696 4.86883L5.00011 1.46198L1.59325 4.86883C1.47259 4.98949 1.3305 5.04982 1.16697 5.04982C1.00344 5.04982 0.861628 4.98949 0.741537 4.86883C0.620877 4.74817 0.560547 4.60608 0.560547 4.44255C0.560547 4.27902 0.620877 4.13721 0.741536 4.01712L4.57425 0.184407Z" fill="#2A2932"/>
</svg>
