<svg width="13" height="10" viewBox="0 0 13 10" fill="none" xmlns="http://www.w3.org/2000/svg">
<path d="M12.3844 4.86097C11.9032 3.61635 11.0679 2.54001 9.9817 1.76496C8.89547 0.989916 7.60594 0.550144 6.2725 0.5C4.93906 0.550144 3.64953 0.989916 2.56331 1.76496C1.47708 2.54001 0.641765 3.61635 0.160602 4.86097C0.128107 4.95085 0.128107 5.04927 0.160602 5.13915C0.641765 6.38377 1.47708 7.46011 2.56331 8.23516C3.64953 9.0102 4.93906 9.44998 6.2725 9.50012C7.60594 9.44998 8.89547 9.0102 9.9817 8.23516C11.0679 7.46011 11.9032 6.38377 12.3844 5.13915C12.4169 5.04927 12.4169 4.95085 12.3844 4.86097ZM6.2725 7.65919C5.74658 7.65919 5.23246 7.50323 4.79517 7.21104C4.35788 6.91885 4.01705 6.50356 3.81579 6.01766C3.61453 5.53177 3.56187 4.99711 3.66447 4.48129C3.76707 3.96547 4.02033 3.49166 4.39222 3.11977C4.7641 2.74789 5.23791 2.49463 5.75373 2.39203C6.26955 2.28943 6.80421 2.34208 7.29011 2.54335C7.776 2.74461 8.1913 3.08544 8.48348 3.52273C8.77567 3.96002 8.93163 4.47413 8.93163 5.00006C8.93055 5.70497 8.65004 6.3807 8.15159 6.87915C7.65314 7.3776 6.97741 7.6581 6.2725 7.65919Z" fill="#3D3B48"/>
</svg>
